<svg width="12" height="16" viewBox="0 0 12 16" fill="none" xmlns="http://www.w3.org/2000/svg">
<path d="M9.7783 2.14109C8.82808 1.19111 7.55964 0.626776 6.2178 0.557017C4.87595 0.487259 3.55583 0.917019 2.51222 1.76335C1.46861 2.60968 0.775487 3.81259 0.566627 5.13991C0.357768 6.46724 0.647977 7.82487 1.38125 8.95081L5.15959 14.7512C5.24367 14.8803 5.35863 14.9863 5.49406 15.0597C5.62949 15.1331 5.78109 15.1716 5.93513 15.1716C6.08918 15.1716 6.24078 15.1331 6.37621 15.0597C6.51163 14.9863 6.6266 14.8803 6.71068 14.7512L10.4891 8.95081C11.1695 7.90634 11.4702 6.65974 11.3408 5.41995C11.2114 4.18015 10.6597 3.02252 9.7783 2.14109ZM9.65127 8.40496L5.93515 14.1096L2.219 8.40496C1.0815 6.65875 1.32546 4.32187 2.79909 2.84819C3.21092 2.43634 3.69983 2.10965 4.23792 1.88677C4.77601 1.66388 5.35273 1.54916 5.93515 1.54916C6.51757 1.54916 7.09429 1.66388 7.63238 1.88677C8.17047 2.10965 8.65938 2.43634 9.07121 2.84819C10.5448 4.32187 10.7888 6.65875 9.65127 8.40496Z" fill="#0587FF"/>
</svg>
